<?xml version="1.0" standalone="no"?>
<!DOCTYPE svg PUBLIC "-//W3C//DTD SVG 20010904//EN"
 "http://www.w3.org/TR/2001/REC-SVG-20010904/DTD/svg10.dtd">
<svg version="1.0" xmlns="http://www.w3.org/2000/svg"
 width="128.000000pt" height="128.000000pt" viewBox="0 0 128.000000 128.000000"
 preserveAspectRatio="xMidYMid meet">

<g transform="translate(0.000000,128.000000) scale(0.100000,-0.100000)"
fill="#000000" stroke="none">
<path d="M564 1174 c-17 -8 -127 -112 -246 -232 -184 -185 -218 -223 -228
-259 -22 -86 25 -170 108 -193 l42 -11 0 -115 c0 -141 12 -192 53 -232 48 -46
89 -52 347 -52 258 0 299 6 347 52 41 40 53 91 53 232 l0 115 42 11 c83 23
130 107 108 193 -10 36 -44 74 -228 259 -119 120 -230 224 -248 233 -41 19
-110 19 -150 -1z m333 -277 c200 -199 223 -226 223 -255 0 -44 -38 -82 -81
-82 -29 0 -54 21 -216 182 l-183 182 -183 -182 c-162 -161 -187 -182 -216
-182 -43 0 -81 38 -81 82 0 29 23 56 223 255 204 205 225 223 257 223 32 0 53
-18 257 -223z m-92 -246 l155 -155 0 -145 c0 -207 27 -191 -319 -191 -348 0
-321 -16 -321 190 l0 146 158 157 c86 86 160 156 164 154 4 -1 77 -71 163
-156z"/>
</g>
</svg>
